# xmcd CD database file
#
# Track frame offsets:
#	150
#	8359
#	23339
#	33495
#	52456
#	65217
#	81754
#	90562
#	111508
#	123970
#	141329
#	177075
#	190366
#	205531
#	217119
#
# Disc length: 2977 seconds
#
# Revision: 1
# Processed by: cddbd v1.5.2PL0 Copyright (c) Steve Scherf et al.
# Submitted via: CDex 1.51
#
DISCID=d30b9f0f
DTITLE=The Wizzards of Jazz - Grillen am Inn
DYEAR=2008
DGENRE=Jazz
TTITLE0=It don´t  mean a Thing
TTITLE1=Living next door to Alice
TTITLE2=Dixie and Swing
TTITLE3=Grillen am Inn
TTITLE4=Some-Thing stupid
TTITLE5=Mamma Mia
TTITLE6=Dry Bones
TTITLE7=Latin Party
TTITLE8=Funny Swing
TTITLE9=Oafoch gehts aa
TTITLE10=Miller Magic
TTITLE11=Do nothin´till you hear from me
TTITLE12=The second Waltz
TTITLE13=Azzurro
TTITLE14=Special bonus Track
EXTD=YEAR: 2008
EXTT0=
EXTT1=
EXTT2=
EXTT3=
EXTT4=
EXTT5=
EXTT6=
EXTT7=
EXTT8=
EXTT9=
EXTT10=
EXTT11=
EXTT12=
EXTT13=
EXTT14=
PLAYORDER=
